<svg width="20" height="20" viewBox="0 0 20 20" fill="none" xmlns="http://www.w3.org/2000/svg">
<path d="M10 0C10.4662 0 10.8505 0.428933 10.903 0.981532L10.9091 1.11111V9.09091L18.8889 9.09091C19.5025 9.09091 20 9.49792 20 10C20 10.4662 19.5711 10.8505 19.0185 10.903L18.8889 10.9091L10.9091 10.9091L10.9091 18.8889C10.9091 19.5025 10.5021 20 10 20C9.53379 20 9.14954 19.5711 9.09703 19.0185L9.09091 18.8889L9.09091 10.9091H1.11111C0.497462 10.9091 0 10.5021 0 10C0 9.53379 0.428933 9.14954 0.981532 9.09703L1.11111 9.09091H9.09091V1.11111C9.09091 0.497462 9.49792 0 10 0Z" fill="#D30085"/>
</svg>
