<svg width="48" height="48" viewBox="0 0 48 48" fill="none" xmlns="http://www.w3.org/2000/svg">
<circle cx="24" cy="24" r="22" fill="#BD081C"/>
<path fill-rule="evenodd" clip-rule="evenodd" d="M24.9377 10.8C17.7327 10.8 14.1001 15.9655 14.1001 20.273C14.1001 22.8809 15.0877 25.2017 17.2055 26.0655C17.5528 26.2075 17.8639 26.0705 17.9645 25.686C18.0347 25.4196 18.2005 24.748 18.2739 24.4683C18.3754 24.0879 18.3358 23.9551 18.0553 23.6235C17.4448 22.9032 17.0545 21.9709 17.0545 20.6501C17.0545 16.817 19.9223 13.3865 24.521 13.3865C28.5934 13.3865 30.8308 15.8756 30.8308 19.198C30.8308 23.5707 28.8953 27.261 26.0234 27.261C24.4369 27.261 23.2497 25.9484 23.63 24.3396C24.0854 22.4189 24.969 20.3448 24.969 18.9588C24.969 17.7179 24.3024 16.6825 22.9238 16.6825C21.3018 16.6825 19.9991 18.3598 19.9991 20.6072C19.9991 22.0386 20.4825 23.0072 20.4825 23.0072C20.4825 23.0072 18.8226 30.0389 18.5322 31.2707C17.953 33.7235 18.4455 36.7299 18.4868 37.0335C18.5115 37.2133 18.7425 37.2562 18.8473 37.1193C18.9966 36.9246 20.928 34.5394 21.5848 32.1567C21.7704 31.4827 22.6515 27.9887 22.6515 27.9887C23.1779 28.9936 24.7182 29.8788 26.3559 29.8788C31.231 29.8788 34.5377 25.4344 34.5377 19.4851C34.5377 14.9887 30.7285 10.8 24.9377 10.8Z" fill="white"/>
</svg>
