<svg width="58" height="25" viewBox="0 0 58 25" fill="none" xmlns="http://www.w3.org/2000/svg">
<path d="M15.184 25H12.94C12.6 25 12.362 24.8413 12.226 24.524L5.63 7.762V22.314H7.772C8.112 22.314 8.282 22.484 8.282 22.824V24.49C8.282 24.83 8.112 25 7.772 25H0.87C0.53 25 0.36 24.83 0.36 24.49V22.824C0.36 22.484 0.53 22.314 0.87 22.314H2.672V4.668H0.87C0.53 4.668 0.36 4.498 0.36 4.158V2.424C0.36 2.084 0.53 1.914 0.87 1.914H6.82C7.18267 1.914 7.40933 2.07267 7.5 2.39L14.504 20.648L21.678 2.39C21.7687 2.07267 21.9953 1.914 22.358 1.914H28.036C28.376 1.914 28.546 2.084 28.546 2.424V4.158C28.546 4.498 28.376 4.668 28.036 4.668H26.234V22.314H28.036C28.376 22.314 28.546 22.484 28.546 22.824V24.49C28.546 24.83 28.376 25 28.036 25H20.556C20.216 25 20.046 24.83 20.046 24.49V22.824C20.046 22.484 20.216 22.314 20.556 22.314H22.596V7.796L15.898 24.524C15.762 24.8413 15.524 25 15.184 25ZM36.9161 22.314H39.0581C39.3981 22.314 39.5681 22.484 39.5681 22.824V24.49C39.5681 24.83 39.3981 25 39.0581 25H30.9661C30.6261 25 30.4561 24.83 30.4561 24.49V22.824C30.4561 22.484 30.6261 22.314 30.9661 22.314C30.9661 22.314 31.6801 22.314 33.1081 22.314V10.958H31.2721C30.9321 10.958 30.7621 10.788 30.7621 10.448V8.68C30.7621 8.34 30.9321 8.17 31.2721 8.17H36.4061C36.7461 8.17 36.9161 8.34 36.9161 8.68V22.314ZM32.8021 5.144C32.3714 4.69067 32.1561 4.11267 32.1561 3.41C32.1561 2.70733 32.3714 2.12933 32.8021 1.676C33.2554 1.2 33.8448 0.961999 34.5701 0.961999C35.3181 0.961999 35.9074 1.2 36.3381 1.676C36.7914 2.12933 37.0181 2.70733 37.0181 3.41C37.0181 4.11267 36.7914 4.69067 36.3381 5.144C35.8848 5.59733 35.2841 5.824 34.5361 5.824C33.8108 5.824 33.2328 5.59733 32.8021 5.144ZM57.5863 8.68V10.448C57.5863 10.788 57.4163 10.958 57.0762 10.958H55.0363L51.2283 16.058L55.0703 22.314H57.4163C57.7563 22.314 57.9263 22.484 57.9263 22.824V24.49C57.9263 24.83 57.7563 25 57.4163 25H52.9623C52.6449 25 52.3843 24.8527 52.1803 24.558L48.8483 18.914L46.3663 22.314H48.2363C48.5763 22.314 48.7463 22.484 48.7463 22.824V24.49C48.7463 24.83 48.5763 25 48.2363 25H41.1983C40.8583 25 40.6883 24.83 40.6883 24.49V22.824C40.6883 22.484 40.8583 22.314 41.1983 22.314H42.9663L47.2843 16.568L43.8843 10.958H41.7083C41.3683 10.958 41.1983 10.788 41.1983 10.448V8.68C41.1983 8.34 41.3683 8.17 41.7083 8.17H45.9583C46.2983 8.17 46.5476 8.31733 46.7063 8.612L49.6983 13.882L51.8743 10.958H50.6163C50.2763 10.958 50.1063 10.788 50.1063 10.448V8.68C50.1063 8.34 50.2763 8.17 50.6163 8.17H57.0762C57.4163 8.17 57.5863 8.34 57.5863 8.68Z" fill="#060C31"/>
</svg>
