<svg width="48" height="48" viewBox="0 0 48 48" fill="none" xmlns="http://www.w3.org/2000/svg">
<circle cx="24" cy="24" r="22" fill="#C13584"/>
<path d="M24.0001 13.1784C27.5246 13.1784 27.9421 13.1919 29.334 13.2554C30.621 13.3141 31.3199 13.5291 31.785 13.7099C32.4012 13.9493 32.8409 14.2354 33.3028 14.6973C33.7647 15.1592 34.0507 15.5989 34.2902 16.215C34.471 16.6802 34.686 17.3791 34.7447 18.6661C34.8082 20.058 34.8217 20.4755 34.8217 24C34.8217 27.5245 34.8082 27.942 34.7447 29.3339C34.686 30.6209 34.471 31.3198 34.2902 31.785C34.0507 32.4011 33.7647 32.8408 33.3028 33.3027C32.8409 33.7646 32.4012 34.0507 31.785 34.2901C31.3199 34.4709 30.621 34.6859 29.334 34.7446C27.9423 34.8081 27.5249 34.8216 24.0001 34.8216C20.4752 34.8216 20.0578 34.8081 18.6661 34.7446C17.3791 34.6859 16.6802 34.4709 16.2151 34.2901C15.5989 34.0507 15.1592 33.7646 14.6973 33.3027C14.2354 32.8408 13.9493 32.4011 13.7099 31.785C13.5291 31.3198 13.3141 30.6209 13.2554 29.3339C13.1919 27.942 13.1784 27.5245 13.1784 24C13.1784 20.4755 13.1919 20.058 13.2554 18.6661C13.3141 17.3791 13.5291 16.6802 13.7099 16.215C13.9493 15.5989 14.2354 15.1592 14.6973 14.6973C15.1592 14.2354 15.5989 13.9493 16.2151 13.7099C16.6802 13.5291 17.3791 13.3141 18.6661 13.2554C20.058 13.1919 20.4755 13.1784 24.0001 13.1784ZM24.0001 10.8C20.4151 10.8 19.9656 10.8152 18.5577 10.8795C17.1527 10.9436 16.1932 11.1667 15.3535 11.493C14.4855 11.8303 13.7494 12.2817 13.0155 13.0155C12.2817 13.7494 11.8303 14.4855 11.4931 15.3535C11.1667 16.1931 10.9436 17.1527 10.8795 18.5577C10.8152 19.9656 10.8 20.4151 10.8 24C10.8 27.5849 10.8152 28.0344 10.8795 29.4423C10.9436 30.8473 11.1667 31.8069 11.4931 32.6465C11.8303 33.5145 12.2817 34.2506 13.0155 34.9845C13.7494 35.7183 14.4855 36.1697 15.3535 36.507C16.1932 36.8333 17.1527 37.0564 18.5577 37.1205C19.9656 37.1848 20.4151 37.2 24.0001 37.2C27.585 37.2 28.0345 37.1848 29.4424 37.1205C30.8474 37.0564 31.8069 36.8333 32.6465 36.507C33.5146 36.1697 34.2507 35.7183 34.9846 34.9845C35.7184 34.2506 36.1698 33.5145 36.5071 32.6465C36.8334 31.8069 37.0565 30.8473 37.1206 29.4423C37.1849 28.0344 37.2 27.5849 37.2 24C37.2 20.4151 37.1849 19.9656 37.1206 18.5577C37.0565 17.1527 36.8334 16.1931 36.5071 15.3535C36.1698 14.4855 35.7184 13.7494 34.9846 13.0155C34.2507 12.2817 33.5146 11.8303 32.6465 11.493C31.8069 11.1667 30.8474 10.9436 29.4424 10.8795C28.0345 10.8152 27.585 10.8 24.0001 10.8Z" fill="white"/>
<path d="M24.0062 17.2278C20.2625 17.2278 17.2278 20.2625 17.2278 24.0061C17.2278 27.7497 20.2625 30.7845 24.0062 30.7845C27.7498 30.7845 30.7845 27.7497 30.7845 24.0061C30.7845 20.2625 27.7498 17.2278 24.0062 17.2278ZM24.0062 28.4061C21.5761 28.4061 19.6062 26.4362 19.6062 24.0061C19.6062 21.5761 21.5761 19.6061 24.0062 19.6061C26.4362 19.6061 28.4062 21.5761 28.4062 24.0061C28.4062 26.4362 26.4362 28.4061 24.0062 28.4061Z" fill="white"/>
<path d="M32.636 16.9559C32.636 17.8306 31.9268 18.5398 31.052 18.5398C30.1772 18.5398 29.468 17.8306 29.468 16.9559C29.468 16.081 30.1772 15.3718 31.052 15.3718C31.9268 15.3718 32.636 16.081 32.636 16.9559Z" fill="white"/>
</svg>
